G04*
G04 #@! TF.GenerationSoftware,Altium Limited,Altium Designer,26.9.1 (10)*
G04*
G04 Layer_Color=16711935*
G04 Board_Origin=10000000|10000000*
%FSLAX44Y44*%
%MOMM*%
G71*
G04*
G04 #@! TF.SameCoordinates,60C9E43B-94A6-4D64-B23C-780B2C1E39DD*
G04*
G04*
G04 #@! TF.FilePolarity,Negative*
G04*
G01*
G75*
%ADD28C,1.7000*%
%ADD29C,1.2000*%
%ADD30R,1.2000X1.2000*%
%ADD31R,1.2000X1.2000*%
%ADD32C,2.0000*%
%ADD33C,1.9000*%
%ADD34R,1.9000X1.9000*%
%ADD35C,1.4000*%
G04:AMPARAMS|DCode=36|XSize=1.4mm|YSize=1.4mm|CornerRadius=0.35mm|HoleSize=0mm|Usage=FLASHONLY|Rotation=0.000|XOffset=0mm|YOffset=0mm|HoleType=Round|Shape=RoundedRectangle|*
%AMROUNDEDRECTD36*
21,1,1.4000,0.7000,0,0,0.0*
21,1,0.7000,1.4000,0,0,0.0*
1,1,0.7000,0.3500,-0.3500*
1,1,0.7000,-0.3500,-0.3500*
1,1,0.7000,-0.3500,0.3500*
1,1,0.7000,0.3500,0.3500*
%
%ADD36ROUNDEDRECTD36*%
%ADD37C,2.4000*%
%ADD38C,4.2000*%
G04:AMPARAMS|DCode=39|XSize=1.4mm|YSize=1.4mm|CornerRadius=0.35mm|HoleSize=0mm|Usage=FLASHONLY|Rotation=90.000|XOffset=0mm|YOffset=0mm|HoleType=Round|Shape=RoundedRectangle|*
%AMROUNDEDRECTD39*
21,1,1.4000,0.7000,0,0,90.0*
21,1,0.7000,1.4000,0,0,90.0*
1,1,0.7000,0.3500,0.3500*
1,1,0.7000,0.3500,-0.3500*
1,1,0.7000,-0.3500,-0.3500*
1,1,0.7000,-0.3500,0.3500*
%
%ADD39ROUNDEDRECTD39*%
%ADD40R,2.0000X2.0000*%
%ADD41R,1.9000X1.9000*%
%ADD42C,1.2700*%
D28*
X170180Y290830D02*
D03*
Y265430D02*
D03*
X66040Y281940D02*
D03*
X40640D02*
D03*
D29*
X231140Y194310D02*
D03*
X621030Y307340D02*
D03*
X646430D02*
D03*
X231140Y219710D02*
D03*
D30*
X671830Y307340D02*
D03*
D31*
X231140Y168910D02*
D03*
D32*
X736290Y57460D02*
D03*
X856290Y179460D02*
D03*
X736290D02*
D03*
X856290Y57460D02*
D03*
D33*
X853440Y473710D02*
D03*
X52070Y530860D02*
D03*
X863600Y303530D02*
D03*
D34*
X853440Y524510D02*
D03*
X52070Y480060D02*
D03*
D35*
X476250Y220980D02*
D03*
X481330Y465620D02*
D03*
D36*
X526250Y220980D02*
D03*
D37*
X259080Y389900D02*
D03*
Y542300D02*
D03*
D38*
X157480Y513100D02*
D03*
Y419100D02*
D03*
D39*
X481330Y515620D02*
D03*
D40*
X796290Y37460D02*
D03*
D41*
X812800Y303530D02*
D03*
D42*
X517370Y367030D02*
D03*
X595630Y175260D02*
D03*
X379730Y372110D02*
D03*
X527050Y96520D02*
D03*
X300990Y252730D02*
D03*
X189230Y109220D02*
D03*
X455930Y373380D02*
D03*
X476250Y311150D02*
D03*
M02*
