M48
;Layer_Color=9474304
;FILE_FORMAT=4:4
METRIC,LZ
;TYPE=PLATED
T01F00S00C0.7000
T02F00S00C0.7112
T03F00S00C0.9000
T04F00S00C1.2000
T05F00S00C1.3000
T06F00S00C1.4000
T07F00S00C1.6000
T08F00S00C2.8000
%
T01
X0062103Y0030734
X0064643
X0067183
X0023114Y0021971
Y0019431
Y0016891
T02
X0018923Y0010922
X0052705Y0009652
X0059563Y0017526
X0047625Y0031115
X0045593Y0037338
X0051737Y0036703
X0037973Y0037211
X0030099Y0025273
T03
X0047625Y0022098
X0052625
X0048133Y0046562
Y0051562
T04
X0017018Y0026543
Y0029083
X0006604Y0028194
X0004064
T05
X0073629Y0005746
X0079629Y0003746
X0085629Y0005746
Y0017946
X0073629
T06
X008128Y0030353
X008636
X0085344Y0047371
Y0052451
X0005207Y0053086
Y0048006
T07
X0025908Y003899
Y005423
T08
X0015748Y004191
Y005131
M30
