G04*
G04 #@! TF.GenerationSoftware,Altium Limited,Altium Designer,26.9.1 (10)*
G04*
G04 Layer_Physical_Order=1*
G04 Layer_Color=255*
G04 Board_Origin=10000000|10000000*
%FSLAX44Y44*%
%MOMM*%
G71*
G04*
G04 #@! TF.SameCoordinates,60C9E43B-94A6-4D64-B23C-780B2C1E39DD*
G04*
G04*
G04 #@! TF.FilePolarity,Positive*
G04*
G01*
G75*
%ADD16R,1.0000X1.5000*%
G04:AMPARAMS|DCode=17|XSize=0.45mm|YSize=1.15mm|CornerRadius=0.0495mm|HoleSize=0mm|Usage=FLASHONLY|Rotation=90.000|XOffset=0mm|YOffset=0mm|HoleType=Round|Shape=RoundedRectangle|*
%AMROUNDEDRECTD17*
21,1,0.4500,1.0510,0,0,90.0*
21,1,0.3510,1.1500,0,0,90.0*
1,1,0.0990,0.5255,0.1755*
1,1,0.0990,0.5255,-0.1755*
1,1,0.0990,-0.5255,-0.1755*
1,1,0.0990,-0.5255,0.1755*
%
%ADD17ROUNDEDRECTD17*%
G04:AMPARAMS|DCode=18|XSize=1.8741mm|YSize=0.5434mm|CornerRadius=0.2717mm|HoleSize=0mm|Usage=FLASHONLY|Rotation=0.000|XOffset=0mm|YOffset=0mm|HoleType=Round|Shape=RoundedRectangle|*
%AMROUNDEDRECTD18*
21,1,1.8741,0.0000,0,0,0.0*
21,1,1.3307,0.5434,0,0,0.0*
1,1,0.5434,0.6653,0.0000*
1,1,0.5434,-0.6653,0.0000*
1,1,0.5434,-0.6653,0.0000*
1,1,0.5434,0.6653,0.0000*
%
%ADD18ROUNDEDRECTD18*%
%ADD19R,1.8741X0.5434*%
%ADD20R,1.3000X1.4500*%
%ADD21R,10.4900X8.3800*%
%ADD22R,1.0160X3.5040*%
%ADD23R,1.5000X1.0000*%
%ADD24R,0.9000X0.8000*%
%ADD25R,0.4500X0.5900*%
%ADD26R,2.1000X1.5500*%
%ADD27R,1.4500X1.3000*%
%ADD28C,1.7000*%
%ADD29C,1.2000*%
%ADD30R,1.2000X1.2000*%
%ADD31R,1.2000X1.2000*%
%ADD32C,2.0000*%
%ADD33C,1.9000*%
%ADD34R,1.9000X1.9000*%
%ADD35C,1.4000*%
G04:AMPARAMS|DCode=36|XSize=1.4mm|YSize=1.4mm|CornerRadius=0.35mm|HoleSize=0mm|Usage=FLASHONLY|Rotation=0.000|XOffset=0mm|YOffset=0mm|HoleType=Round|Shape=RoundedRectangle|*
%AMROUNDEDRECTD36*
21,1,1.4000,0.7000,0,0,0.0*
21,1,0.7000,1.4000,0,0,0.0*
1,1,0.7000,0.3500,-0.3500*
1,1,0.7000,-0.3500,-0.3500*
1,1,0.7000,-0.3500,0.3500*
1,1,0.7000,0.3500,0.3500*
%
%ADD36ROUNDEDRECTD36*%
%ADD37C,2.4000*%
%ADD38C,4.2000*%
G04:AMPARAMS|DCode=39|XSize=1.4mm|YSize=1.4mm|CornerRadius=0.35mm|HoleSize=0mm|Usage=FLASHONLY|Rotation=90.000|XOffset=0mm|YOffset=0mm|HoleType=Round|Shape=RoundedRectangle|*
%AMROUNDEDRECTD39*
21,1,1.4000,0.7000,0,0,90.0*
21,1,0.7000,1.4000,0,0,90.0*
1,1,0.7000,0.3500,0.3500*
1,1,0.7000,0.3500,-0.3500*
1,1,0.7000,-0.3500,-0.3500*
1,1,0.7000,-0.3500,0.3500*
%
%ADD39ROUNDEDRECTD39*%
%ADD40R,2.0000X2.0000*%
%ADD41R,1.9000X1.9000*%
%ADD42C,1.2700*%
%ADD43C,0.3500*%
%ADD44C,0.8000*%
D16*
X528320Y68580D02*
D03*
X496320D02*
D03*
X69340Y113030D02*
D03*
X37340D02*
D03*
D17*
X462620Y338530D02*
D03*
X505120Y345030D02*
D03*
Y338530D02*
D03*
Y332030D02*
D03*
X462620Y325530D02*
D03*
Y345030D02*
D03*
Y332030D02*
D03*
X505120Y325530D02*
D03*
D18*
X400351Y102870D02*
D03*
Y90170D02*
D03*
Y77470D02*
D03*
Y64770D02*
D03*
X354029D02*
D03*
Y77470D02*
D03*
Y90170D02*
D03*
D19*
Y102870D02*
D03*
D20*
X386460Y194310D02*
D03*
X370460D02*
D03*
D21*
X687070Y525410D02*
D03*
D22*
X712470Y423280D02*
D03*
X661670D02*
D03*
D23*
X330200Y323340D02*
D03*
Y291340D02*
D03*
X163830Y93220D02*
D03*
Y125220D02*
D03*
D24*
X604680Y112420D02*
D03*
Y131420D02*
D03*
X624680Y121920D02*
D03*
D25*
X664210Y108340D02*
D03*
Y87240D02*
D03*
D26*
X369800Y478790D02*
D03*
X304800D02*
D03*
Y504190D02*
D03*
X369800D02*
D03*
D27*
X378460Y304420D02*
D03*
Y320420D02*
D03*
X774700Y524000D02*
D03*
Y508000D02*
D03*
X580390Y503430D02*
D03*
Y519430D02*
D03*
D28*
X170180Y290830D02*
D03*
Y265430D02*
D03*
X66040Y281940D02*
D03*
X40640D02*
D03*
D29*
X231140Y194310D02*
D03*
X621030Y307340D02*
D03*
X646430D02*
D03*
X231140Y219710D02*
D03*
D30*
X671830Y307340D02*
D03*
D31*
X231140Y168910D02*
D03*
D32*
X736290Y57460D02*
D03*
X856290Y179460D02*
D03*
X736290D02*
D03*
X856290Y57460D02*
D03*
D33*
X853440Y473710D02*
D03*
X52070Y530860D02*
D03*
X863600Y303530D02*
D03*
D34*
X853440Y524510D02*
D03*
X52070Y480060D02*
D03*
D35*
X476250Y220980D02*
D03*
X481330Y465620D02*
D03*
D36*
X526250Y220980D02*
D03*
D37*
X259080Y389900D02*
D03*
Y542300D02*
D03*
D38*
X157480Y513100D02*
D03*
Y419100D02*
D03*
D39*
X481330Y515620D02*
D03*
D40*
X796290Y37460D02*
D03*
D41*
X812800Y303530D02*
D03*
D42*
X517370Y367030D02*
D03*
X595630Y175260D02*
D03*
X379730Y372110D02*
D03*
X527050Y96520D02*
D03*
X300990Y252730D02*
D03*
X189230Y109220D02*
D03*
X455930Y373380D02*
D03*
X476250Y311150D02*
D03*
D43*
X796290Y287020D02*
X812800Y303530D01*
X796290Y37460D02*
Y287020D01*
X854973Y56143D02*
X856290Y57460D01*
X841040Y56143D02*
X854973D01*
X808067Y23170D02*
X841040Y56143D01*
X705810Y23170D02*
X808067D01*
X664210Y64770D02*
X705810Y23170D01*
X664210Y64770D02*
Y87240D01*
X715090Y57460D02*
X736290D01*
X665410Y107140D02*
X715090Y57460D01*
X664710Y107140D02*
X665410D01*
X664210Y107640D02*
X664710Y107140D01*
X664210Y107640D02*
Y108340D01*
X497883Y345070D02*
X510170D01*
X664210Y87240D02*
Y87940D01*
X663710Y88440D02*
X664210Y87940D01*
X658660Y88440D02*
X663710D01*
X625180Y121920D02*
X658660Y88440D01*
X624680Y121920D02*
X625180D01*
X664210Y299720D02*
X671830Y307340D01*
X664210Y108340D02*
Y299720D01*
X863600Y243802D02*
Y303530D01*
X856290Y236492D02*
X863600Y243802D01*
X856290Y179460D02*
Y236492D01*
X469897Y332030D02*
X472578D01*
X505818Y365270D01*
X515610D01*
X517370Y367030D01*
X595630Y175260D02*
X604680Y166210D01*
Y131420D02*
Y166210D01*
X604180Y112420D02*
X604680D01*
X495620Y220980D02*
X604180Y112420D01*
X476250Y220980D02*
X495620D01*
X413310Y338530D02*
X456253D01*
X379730Y372110D02*
X413310Y338530D01*
X527050Y69850D02*
Y96520D01*
Y69850D02*
X528320Y68580D01*
X170180Y290830D02*
X295190D01*
X327700Y323340D01*
X330200D01*
Y281940D02*
Y291340D01*
X300990Y252730D02*
X330200Y281940D01*
X496320Y66750D02*
Y68580D01*
X493070Y63500D02*
X496320Y66750D01*
X435120Y63500D02*
X493070D01*
X433070Y61450D02*
X435120Y63500D01*
X433070Y53340D02*
Y61450D01*
Y53340D02*
X433200Y53210D01*
Y50310D02*
Y53210D01*
X431150Y48260D02*
X433200Y50310D01*
X383050Y48260D02*
X431150D01*
X381000Y50310D02*
X383050Y48260D01*
X381000Y50310D02*
Y90520D01*
X368650Y102870D02*
X381000Y90520D01*
X354029Y102870D02*
X368650D01*
X400351D02*
Y116539D01*
X386460Y130430D02*
X400351Y116539D01*
X386460Y130430D02*
Y194310D01*
X335280Y90170D02*
X354029D01*
X231140Y194310D02*
X335280Y90170D01*
X370460Y194310D02*
Y195060D01*
X345810Y219710D02*
X370460Y195060D01*
X231140Y219710D02*
X345810D01*
X166330Y93220D02*
X186180D01*
X182330Y109220D02*
X189230D01*
X166330Y93220D02*
X182330Y109220D01*
X163830Y93220D02*
X166330D01*
X267970Y77470D02*
X354029D01*
X220220Y125220D02*
X267970Y77470D01*
X163830Y125220D02*
X220220D01*
X214630Y64770D02*
X354029D01*
X186180Y93220D02*
X214630Y64770D01*
X230050Y220800D02*
X231140Y219710D01*
X230050Y220800D02*
Y230960D01*
X170180Y290830D02*
X230050Y230960D01*
X170180Y261777D02*
Y265430D01*
X163830Y255427D02*
X170180Y261777D01*
X163830Y125220D02*
Y255427D01*
X161330Y93220D02*
X163830D01*
X141520Y113030D02*
X161330Y93220D01*
X69340Y113030D02*
X141520D01*
X168515Y290830D02*
X170180D01*
X159625Y281940D02*
X168515Y290830D01*
X66040Y281940D02*
X159625D01*
X37340Y113030D02*
Y115530D01*
X40640Y118830D01*
Y281940D01*
X455930Y353060D02*
X461010Y347980D01*
X455930Y353060D02*
Y373380D01*
X453390Y325120D02*
X455930D01*
X450850Y322580D02*
X453390Y325120D01*
X450850Y322470D02*
Y322580D01*
X448800Y320420D02*
X450850Y322470D01*
X378460Y320420D02*
X448800D01*
X476250Y304420D02*
Y311150D01*
X671830Y307340D02*
X838200Y473710D01*
X497843Y345030D02*
X497883Y345070D01*
X510170D02*
X511810Y346710D01*
X515620D01*
X516890Y347980D01*
X605790D01*
X646430Y307340D01*
X671830D01*
X494120Y345030D02*
X497843D01*
X505120Y338530D02*
X589840D01*
X621030Y307340D01*
X511810Y332070D02*
X523600D01*
X526250Y329420D01*
Y220980D02*
Y329420D01*
X476250Y220980D02*
Y304420D01*
X378460D02*
X476250D01*
X377710D02*
X378460D01*
X364630Y291340D02*
X377710Y304420D01*
X330200Y291340D02*
X364630D01*
X330200Y323340D02*
X375540D01*
X378460Y320420D01*
X468630Y325490D02*
X474580D01*
X494120Y345030D01*
D44*
X838200Y473710D02*
X853440D01*
X853185Y524255D02*
X853440Y524510D01*
X774955Y524255D02*
X853185D01*
X774700Y524000D02*
X774955Y524255D01*
X809740Y473710D02*
X838200D01*
X775450Y508000D02*
X809740Y473710D01*
X774700Y508000D02*
X775450D01*
X773950D02*
X774700D01*
X771450Y505500D02*
X773950Y508000D01*
X771450Y494700D02*
Y505500D01*
X712470Y435720D02*
X771450Y494700D01*
X712470Y423280D02*
Y435720D01*
X851733Y533400D02*
X854710D01*
X688480Y524000D02*
X774700D01*
X687070Y525410D02*
X688480Y524000D01*
X687070Y378460D02*
Y525410D01*
X680720Y372110D02*
X687070Y378460D01*
X668020Y372110D02*
X680720D01*
X580390Y459740D02*
X668020Y372110D01*
X580390Y459740D02*
Y503430D01*
X660590Y424360D02*
X661670Y423280D01*
X660590Y424360D02*
Y446229D01*
X589889Y516930D02*
X660590Y446229D01*
X582890Y516930D02*
X589889D01*
X580390Y519430D02*
X582890Y516930D01*
X579640Y503430D02*
X580390D01*
X541830Y465620D02*
X579640Y503430D01*
X481330Y465620D02*
X541830D01*
X533890Y519430D02*
X580390D01*
X530080Y515620D02*
X533890Y519430D01*
X481330Y515620D02*
X530080D01*
X480800Y465620D02*
X481330D01*
X467630Y478790D02*
X480800Y465620D01*
X369800Y478790D02*
X467630D01*
X431155Y515620D02*
X481330D01*
X419725Y504190D02*
X431155Y515620D01*
X369800Y504190D02*
X419725D01*
X301050Y507940D02*
X304800Y504190D01*
X293440Y507940D02*
X301050D01*
X259080Y542300D02*
X293440Y507940D01*
X302050Y478790D02*
X304800D01*
X259080Y435820D02*
X302050Y478790D01*
X259080Y389900D02*
Y435820D01*
X113030Y419100D02*
X157480D01*
X52070Y480060D02*
X113030Y419100D01*
X148280Y513100D02*
X157480D01*
X130520Y530860D02*
X148280Y513100D01*
X52070Y530860D02*
X130520D01*
M02*
