G04*
G04 #@! TF.GenerationSoftware,Altium Limited,Altium Designer,26.9.1 (10)*
G04*
G04 Layer_Color=8421504*
G04 Board_Origin=10000000|10000000*
%FSLAX44Y44*%
%MOMM*%
G71*
G04*
G04 #@! TF.SameCoordinates,60C9E43B-94A6-4D64-B23C-780B2C1E39DD*
G04*
G04*
G04 #@! TF.FilePolarity,Positive*
G04*
G01*
G75*
%ADD16R,1.0000X1.5000*%
G04:AMPARAMS|DCode=17|XSize=0.45mm|YSize=1.15mm|CornerRadius=0.0495mm|HoleSize=0mm|Usage=FLASHONLY|Rotation=90.000|XOffset=0mm|YOffset=0mm|HoleType=Round|Shape=RoundedRectangle|*
%AMROUNDEDRECTD17*
21,1,0.4500,1.0510,0,0,90.0*
21,1,0.3510,1.1500,0,0,90.0*
1,1,0.0990,0.5255,0.1755*
1,1,0.0990,0.5255,-0.1755*
1,1,0.0990,-0.5255,-0.1755*
1,1,0.0990,-0.5255,0.1755*
%
%ADD17ROUNDEDRECTD17*%
G04:AMPARAMS|DCode=18|XSize=1.8741mm|YSize=0.5434mm|CornerRadius=0.2717mm|HoleSize=0mm|Usage=FLASHONLY|Rotation=0.000|XOffset=0mm|YOffset=0mm|HoleType=Round|Shape=RoundedRectangle|*
%AMROUNDEDRECTD18*
21,1,1.8741,0.0000,0,0,0.0*
21,1,1.3307,0.5434,0,0,0.0*
1,1,0.5434,0.6653,0.0000*
1,1,0.5434,-0.6653,0.0000*
1,1,0.5434,-0.6653,0.0000*
1,1,0.5434,0.6653,0.0000*
%
%ADD18ROUNDEDRECTD18*%
%ADD19R,1.8741X0.5434*%
%ADD20R,1.3000X1.4500*%
%ADD21R,10.4900X8.3800*%
%ADD22R,1.0160X3.5040*%
%ADD23R,1.5000X1.0000*%
%ADD24R,0.9000X0.8000*%
%ADD25R,0.4500X0.5900*%
%ADD26R,2.1000X1.5500*%
%ADD27R,1.4500X1.3000*%
D16*
X528320Y68580D02*
D03*
X496320D02*
D03*
X69340Y113030D02*
D03*
X37340D02*
D03*
D17*
X462620Y338530D02*
D03*
X505120Y345030D02*
D03*
Y338530D02*
D03*
Y332030D02*
D03*
X462620Y325530D02*
D03*
Y345030D02*
D03*
Y332030D02*
D03*
X505120Y325530D02*
D03*
D18*
X400351Y102870D02*
D03*
Y90170D02*
D03*
Y77470D02*
D03*
Y64770D02*
D03*
X354029D02*
D03*
Y77470D02*
D03*
Y90170D02*
D03*
D19*
Y102870D02*
D03*
D20*
X386460Y194310D02*
D03*
X370460D02*
D03*
D21*
X687070Y525410D02*
D03*
D22*
X712470Y423280D02*
D03*
X661670D02*
D03*
D23*
X330200Y323340D02*
D03*
Y291340D02*
D03*
X163830Y93220D02*
D03*
Y125220D02*
D03*
D24*
X604680Y112420D02*
D03*
Y131420D02*
D03*
X624680Y121920D02*
D03*
D25*
X664210Y108340D02*
D03*
Y87240D02*
D03*
D26*
X369800Y478790D02*
D03*
X304800D02*
D03*
Y504190D02*
D03*
X369800D02*
D03*
D27*
X378460Y304420D02*
D03*
Y320420D02*
D03*
X774700Y524000D02*
D03*
Y508000D02*
D03*
X580390Y503430D02*
D03*
Y519430D02*
D03*
M02*
